<?xml version="1.0" standalone="no"?>
<!DOCTYPE svg PUBLIC "-//W3C//DTD SVG 20010904//EN"
 "http://www.w3.org/TR/2001/REC-SVG-20010904/DTD/svg10.dtd">
<svg version="1.0" xmlns="http://www.w3.org/2000/svg"
 width="200.000000pt" height="200.000000pt" viewBox="0 0 200.000000 200.000000"
 preserveAspectRatio="xMidYMid meet">
<metadata>
Created by potrace 1.14, written by Peter Selinger 2001-2017
</metadata>
<g transform="translate(0.000000,200.000000) scale(0.100000,-0.100000)"
fill="#000000" stroke="none">
<path d="M845 1885 c-258 -48 -479 -212 -599 -445 -63 -122 -87 -211 -93 -356
-11 -253 72 -467 250 -643 184 -181 417 -263 684 -239 327 29 612 256 721 575
49 143 54 356 12 503 -29 100 -98 232 -165 313 -192 233 -511 348 -810 292z
m366 -96 c60 -17 155 -59 196 -86 6 -4 -28 -8 -75 -8 -67 -1 -98 -6 -134 -22
-57 -26 -132 -93 -170 -152 l-28 -45 0 173 0 174 70 -7 c38 -4 102 -16 141
-27z m-391 -568 l0 -578 -23 -33 c-41 -62 -77 -75 -209 -75 l-117 0 -3 -25
c-3 -22 -9 -18 -60 45 -113 136 -167 274 -175 451 -12 240 66 436 241 601 81
77 176 136 276 170 36 12 66 23 68 23 1 0 2 -260 2 -579z m825 249 c92 -139
131 -288 122 -465 -9 -174 -55 -296 -163 -435 l-59 -75 -3 46 -3 47 -60 -19
c-225 -70 -360 6 -425 242 -26 92 -27 386 -1 478 51 187 142 275 282 276 59 0
81 -5 133 -31 l62 -31 12 39 11 38 25 -22 c13 -13 43 -52 67 -88z m-540 -985
c69 -52 123 -69 215 -69 47 0 99 3 115 7 29 8 29 7 -9 -19 -63 -43 -179 -93
-256 -109 -90 -19 -254 -19 -345 0 -39 8 -112 36 -165 62 l-95 48 40 3 c86 5
180 24 225 43 56 24 123 90 145 142 l16 38 39 -59 c22 -33 56 -72 75 -87z"/>
</g>
</svg>
